<svg width="59" height="62" viewBox="0 0 59 62" fill="none" xmlns="http://www.w3.org/2000/svg">
                        <path d="M13.5312 50.5859C13.3203 52.3906 12.6523 53.7852 11.5273 54.7695C10.4102 55.7461 8.92188 56.2344 7.0625 56.2344C5.04688 56.2344 3.42969 55.5117 2.21094 54.0664C1 52.6211 0.394531 50.6875 0.394531 48.2656V46.625C0.394531 45.0391 0.675781 43.6445 1.23828 42.4414C1.80859 41.2383 2.61328 40.3164 3.65234 39.6758C4.69141 39.0273 5.89453 38.7031 7.26172 38.7031C9.07422 38.7031 10.5273 39.2109 11.6211 40.2266C12.7148 41.2344 13.3516 42.6328 13.5312 44.4219H11.2695C11.0742 43.0625 10.6484 42.0781 9.99219 41.4688C9.34375 40.8594 8.43359 40.5547 7.26172 40.5547C5.82422 40.5547 4.69531 41.0859 3.875 42.1484C3.0625 43.2109 2.65625 44.7227 2.65625 46.6836V48.3359C2.65625 50.1875 3.04297 51.6602 3.81641 52.7539C4.58984 53.8477 5.67188 54.3945 7.0625 54.3945C8.3125 54.3945 9.26953 54.1133 9.93359 53.5508C10.6055 52.9805 11.0508 51.9922 11.2695 50.5859H13.5312ZM24.1016 56C23.9766 55.75 23.875 55.3047 23.7969 54.6641C22.7891 55.7109 21.5859 56.2344 20.1875 56.2344C18.9375 56.2344 17.9102 55.8828 17.1055 55.1797C16.3086 54.4688 15.9102 53.5703 15.9102 52.4844C15.9102 51.1641 16.4102 50.1406 17.4102 49.4141C18.418 48.6797 19.832 48.3125 21.6523 48.3125H23.7617V47.3164C23.7617 46.5586 23.5352 45.957 23.082 45.5117C22.6289 45.0586 21.9609 44.832 21.0781 44.832C20.3047 44.832 19.6562 45.0273 19.1328 45.418C18.6094 45.8086 18.3477 46.2812 18.3477 46.8359H16.168C16.168 46.2031 16.3906 45.5938 16.8359 45.0078C17.2891 44.4141 17.8984 43.9453 18.6641 43.6016C19.4375 43.2578 20.2852 43.0859 21.207 43.0859C22.668 43.0859 23.8125 43.4531 24.6406 44.1875C25.4688 44.9141 25.8984 45.918 25.9297 47.1992V53.0352C25.9297 54.1992 26.0781 55.125 26.375 55.8125V56H24.1016ZM20.5039 54.3477C21.1836 54.3477 21.8281 54.1719 22.4375 53.8203C23.0469 53.4688 23.4883 53.0117 23.7617 52.4492V49.8477H22.0625C19.4062 49.8477 18.0781 50.625 18.0781 52.1797C18.0781 52.8594 18.3047 53.3906 18.7578 53.7734C19.2109 54.1562 19.793 54.3477 20.5039 54.3477ZM36.7109 52.6367C36.7109 52.0508 36.4883 51.5977 36.043 51.2773C35.6055 50.9492 34.8359 50.668 33.7344 50.4336C32.6406 50.1992 31.7695 49.918 31.1211 49.5898C30.4805 49.2617 30.0039 48.8711 29.6914 48.418C29.3867 47.9648 29.2344 47.4258 29.2344 46.8008C29.2344 45.7617 29.6719 44.8828 30.5469 44.1641C31.4297 43.4453 32.5547 43.0859 33.9219 43.0859C35.3594 43.0859 36.5234 43.457 37.4141 44.1992C38.3125 44.9414 38.7617 45.8906 38.7617 47.0469H36.582C36.582 46.4531 36.3281 45.9414 35.8203 45.5117C35.3203 45.082 34.6875 44.8672 33.9219 44.8672C33.1328 44.8672 32.5156 45.0391 32.0703 45.3828C31.625 45.7266 31.4023 46.1758 31.4023 46.7305C31.4023 47.2539 31.6094 47.6484 32.0234 47.9141C32.4375 48.1797 33.1836 48.4336 34.2617 48.6758C35.3477 48.918 36.2266 49.207 36.8984 49.543C37.5703 49.8789 38.0664 50.2852 38.3867 50.7617C38.7148 51.2305 38.8789 51.8047 38.8789 52.4844C38.8789 53.6172 38.4258 54.5273 37.5195 55.2148C36.6133 55.8945 35.4375 56.2344 33.9922 56.2344C32.9766 56.2344 32.0781 56.0547 31.2969 55.6953C30.5156 55.3359 29.9023 54.8359 29.457 54.1953C29.0195 53.5469 28.8008 52.8477 28.8008 52.0977H30.9688C31.0078 52.8242 31.2969 53.4023 31.8359 53.832C32.3828 54.2539 33.1016 54.4648 33.9922 54.4648C34.8125 54.4648 35.4688 54.3008 35.9609 53.9727C36.4609 53.6367 36.7109 53.1914 36.7109 52.6367ZM44.6445 40.25V43.3203H47.0117V44.9961H44.6445V52.8594C44.6445 53.3672 44.75 53.75 44.9609 54.0078C45.1719 54.2578 45.5312 54.3828 46.0391 54.3828C46.2891 54.3828 46.6328 54.3359 47.0703 54.2422V56C46.5 56.1562 45.9453 56.2344 45.4062 56.2344C44.4375 56.2344 43.707 55.9414 43.2148 55.3555C42.7227 54.7695 42.4766 53.9375 42.4766 52.8594V44.9961H40.168V43.3203H42.4766V40.25H44.6445ZM53.7031 52.8242L56.6562 43.3203H58.9766L53.8789 57.957C53.0898 60.0664 51.8359 61.1211 50.1172 61.1211L49.707 61.0859L48.8984 60.9336V59.1758L49.4844 59.2227C50.2188 59.2227 50.7891 59.0742 51.1953 58.7773C51.6094 58.4805 51.9492 57.9375 52.2148 57.1484L52.6953 55.8594L48.1719 43.3203H50.5391L53.7031 52.8242Z" fill="white"/>
                        <mask id="mask0" style="mask-type:alpha" maskUnits="userSpaceOnUse" x="13" y="0" width="32" height="32">
                        <path d="M45 16C45 24.8366 37.8366 32 29 32C20.1634 32 13 24.8366 13 16C13 7.16344 20.1634 0 29 0C37.8366 0 45 7.16344 45 16Z" fill="white"/>
                        </mask>
                        <g mask="url(#mask0)">
                        <path d="M13 0H45V32H13V0Z" fill="white"/>
                        <path d="M18.7671 12.5576L37.7671 2.55756M26.7671 25.5576L45.7671 15.5576M14.7764 23.5528L32.7764 14.5528" stroke="black"/>
                        <path d="M21 12.5C21 13.3284 20.3284 14 19.5 14C18.6716 14 18 13.3284 18 12.5C18 11.6716 18.6716 11 19.5 11C20.3284 11 21 11.6716 21 12.5Z" fill="black"/>
                        <path d="M35 14.5C35 15.3284 34.3284 16 33.5 16C32.6716 16 32 15.3284 32 14.5C32 13.6716 32.6716 13 33.5 13C34.3284 13 35 13.6716 35 14.5Z" fill="black"/>
                        <path d="M28 25.5C28 26.3284 27.3284 27 26.5 27C25.6716 27 25 26.3284 25 25.5C25 24.6716 25.6716 24 26.5 24C27.3284 24 28 24.6716 28 25.5Z" fill="black"/>
                        </g>
                        </svg>